<svg xmlns="http://www.w3.org/2000/svg" xmlns:xlink="http://www.w3.org/1999/xlink" width="2000" zoomAndPan="magnify" viewBox="0 0 1500 1499.999933" height="2000" preserveAspectRatio="xMidYMid meet" version="1.0"><defs><clipPath id="3d3194fcd0"><path d="M 525 479 L 1161.558594 479 L 1161.558594 1228.390625 L 525 1228.390625 Z M 525 479 " clip-rule="nonzero"/></clipPath><clipPath id="33443330dc"><path d="M 239.058594 172.390625 L 948 172.390625 L 948 728 L 239.058594 728 Z M 239.058594 172.390625 " clip-rule="nonzero"/></clipPath></defs><path fill="#5289ad" d="M 154.132812 81.625 L 151.589844 85.574219 C 147.398438 87.960938 145.074219 88.941406 154.132812 81.625 Z M 574.566406 11.9375 L 567.25 13.589844 C 568.875 13.710938 570.585938 13.832031 572.269531 13.957031 C 574.078125 13.496094 574.964844 12.855469 574.566406 11.9375 Z M 53.804688 189.421875 C 51.753906 191.808594 48.601562 195.96875 45.144531 202.152344 C 48.816406 197.867188 52.855469 192.96875 56.867188 187.828125 C 56.957031 186.511719 55.855469 187.03125 53.804688 189.421875 Z M 692.367188 12.855469 C 700.296875 13.128906 707.210938 13.375 714.589844 13.648438 C 709.660156 12.914062 701.796875 12.488281 692.367188 12.855469 Z M 53.132812 1314.527344 C 53.804688 1316.058594 54.753906 1318.167969 56.160156 1321.046875 Z M 1348.621094 1414.484375 L 1346.082031 1418.433594 C 1355.140625 1411.089844 1352.816406 1412.039062 1348.621094 1414.484375 Z M 925.648438 1488.0625 L 932.960938 1486.410156 C 931.339844 1486.289062 929.625 1486.164062 927.941406 1486.042969 C 926.136719 1486.53125 925.21875 1487.175781 925.648438 1488.0625 Z M 1446.410156 1310.578125 C 1448.460938 1308.191406 1451.613281 1304.027344 1455.070312 1297.847656 C 1451.398438 1302.132812 1447.359375 1307.027344 1443.347656 1312.171875 C 1443.257812 1313.515625 1444.328125 1312.964844 1446.410156 1310.578125 Z M 807.816406 1487.175781 C 799.886719 1486.898438 792.972656 1486.65625 785.59375 1486.378906 C 790.554688 1487.113281 798.417969 1487.542969 807.816406 1487.175781 Z M 1447.050781 185.503906 C 1446.378906 183.972656 1445.429688 181.859375 1444.019531 179.015625 Z M 1489.746094 875.390625 C 1487.390625 944.253906 1491.523438 956.007812 1490.296875 1029.859375 L 1492.164062 995.304688 C 1498.226562 1033.625 1488.796875 1108.546875 1495.652344 1119.933594 C 1495.53125 1125.441406 1495.347656 1130.800781 1494.859375 1136.738281 C 1494.398438 1142.492188 1494.09375 1148.214844 1493.144531 1153.84375 C 1491.707031 1165.167969 1489.441406 1176.308594 1486.871094 1187.605469 C 1481.515625 1210.222656 1474.320312 1233.453125 1464.527344 1260.230469 C 1469.515625 1253.46875 1473.769531 1246.277344 1478.363281 1239.082031 C 1473.035156 1255.886719 1466.546875 1272.289062 1459.050781 1288.238281 L 1455.039062 1287.105469 C 1447.328125 1302.132812 1443.53125 1309.875 1443.378906 1312.199219 C 1432.328125 1326.523438 1420.027344 1343.9375 1404.875 1361.261719 C 1389.816406 1378.585938 1371.914062 1395.785156 1351.746094 1409.464844 L 1348.621094 1414.484375 C 1345.410156 1416.414062 1340.878906 1418.953125 1339.65625 1419.351562 C 1338.214844 1421.464844 1335.09375 1424.433594 1331.175781 1427.707031 C 1327.167969 1430.828125 1322.363281 1434.226562 1317.742188 1437.472656 C 1308.316406 1443.652344 1299.53125 1449.164062 1299.285156 1451 C 1302.957031 1449.4375 1307.609375 1446.960938 1312.660156 1444.359375 C 1317.742188 1441.847656 1322.914062 1438.789062 1327.566406 1435.941406 C 1332.25 1433.1875 1336.257812 1430.492188 1338.859375 1428.441406 C 1341.492188 1426.421875 1342.746094 1425.167969 1341.828125 1425.167969 C 1359.210938 1414.824219 1349.847656 1422.902344 1332.707031 1434.746094 C 1315.566406 1446.59375 1289.429688 1459.8125 1277.125 1464.773438 C 1302.375 1451.03125 1268.710938 1466.457031 1253.375 1470.863281 C 1251.171875 1472.210938 1256.253906 1470.738281 1258.945312 1470.496094 C 1236.085938 1480.257812 1219.097656 1482.246094 1204.621094 1484.023438 C 1197.304688 1484.789062 1190.542969 1485.371094 1183.65625 1486.59375 C 1176.707031 1487.449219 1169.640625 1489.410156 1161.527344 1491.707031 L 1152.683594 1488.550781 C 1146.285156 1489.59375 1139.859375 1489.929688 1133.402344 1490.664062 C 1126.914062 1491.308594 1121.128906 1491.644531 1114.976562 1492.132812 C 1111.703125 1484.480469 1063.496094 1491.398438 1057.589844 1484.328125 C 1015.90625 1484.144531 1063.160156 1488.675781 1048.285156 1487.878906 C 1009.417969 1489.378906 941.105469 1482.460938 927.914062 1486.074219 C 913.648438 1484.972656 898.867188 1484.636719 884.390625 1484.511719 C 877.78125 1485.1875 871.476562 1485.675781 865.292969 1485.738281 C 842.492188 1485.492188 839.15625 1484.878906 842.398438 1484.113281 C 837.898438 1483.992188 833.523438 1483.871094 829.359375 1483.65625 L 827.339844 1486.929688 C 813.597656 1486.195312 797.621094 1484.789062 783.820312 1485.03125 C 786.113281 1485.398438 788.042969 1485.859375 789.175781 1486.441406 C 787.675781 1486.226562 785.011719 1485.980469 781.675781 1485.738281 C 782.535156 1486.011719 783.851562 1486.257812 785.535156 1486.472656 C 767.964844 1485.859375 751.5625 1485.429688 735.707031 1485.125 C 734.605469 1485.214844 733.5625 1485.339844 732.585938 1485.460938 C 733.011719 1486.839844 774.699219 1487.023438 747.886719 1487.632812 C 704.765625 1486.503906 675.902344 1486.929688 649.671875 1487.695312 C 653.773438 1488.0625 659.558594 1488.367188 667.945312 1488.582031 C 652.949219 1489.65625 634.585938 1489.472656 614.292969 1488.859375 C 592.59375 1489.5625 569.058594 1490.113281 537.105469 1489.898438 L 544.816406 1492.347656 C 534.839844 1491.828125 527.28125 1490.757812 517.699219 1491.582031 L 522.964844 1493.203125 C 516.722656 1493.203125 491.347656 1492.378906 460.253906 1491.644531 C 444.703125 1491.367188 427.71875 1491.0625 410.945312 1490.757812 C 394.019531 1490.695312 377.339844 1490.632812 362.558594 1490.574219 L 370.453125 1491.492188 L 377.921875 1492.226562 L 392.828125 1493.695312 C 384.042969 1493.082031 375.6875 1492.625 366.539062 1491.886719 L 352.703125 1490.664062 C 348.113281 1490.144531 343.523438 1489.441406 338.960938 1488.796875 L 344.746094 1493.601562 C 335.257812 1490.878906 314.292969 1488.492188 289.6875 1482.953125 C 265.078125 1477.472656 236.921875 1468.230469 213.570312 1456.234375 L 212.710938 1458.835938 L 198.847656 1450.875 C 194.257812 1448.183594 189.847656 1445.183594 185.378906 1442.335938 L 193.796875 1449.375 C 179.933594 1441.632812 166.039062 1431.136719 152.265625 1419.84375 C 138.582031 1408.394531 125.269531 1395.847656 111.742188 1383.820312 C 128.820312 1399.613281 130.625 1406.160156 127.65625 1406.285156 C 121.71875 1400.835938 116.425781 1394.746094 110.824219 1388.992188 C 105.621094 1382.839844 100.171875 1376.992188 95.335938 1370.597656 C 85.238281 1358.171875 76.421875 1344.796875 68.097656 1331.269531 C 66.75 1330.808594 60.019531 1321.964844 55.917969 1316.085938 C 52.703125 1311.496094 50.621094 1309.046875 53.039062 1314.617188 L 48.082031 1304 C 45.726562 1298.152344 43.246094 1292.398438 41.042969 1286.554688 C 40.765625 1287.746094 40.523438 1288.941406 40.339844 1290.101562 C 31.738281 1273.363281 24.789062 1256.160156 19.28125 1238.714844 C 13.988281 1221.210938 10.285156 1203.519531 7.804688 1185.859375 C 5.691406 1168.136719 4.621094 1150.507812 5.109375 1133.003906 C 5.660156 1116.660156 6.242188 1100.40625 6.792969 1084.15625 C 9.058594 1019.425781 10.679688 954.753906 5.90625 885.460938 L 5.082031 887.972656 L 10.128906 806.4375 C 9.578125 791.59375 5.722656 787.339844 4.347656 763.066406 C 8.476562 774.636719 4.804688 716.210938 8.324219 700.9375 C 6.640625 681.808594 5.601562 701.425781 3.980469 706.660156 C 0 628.433594 6.734375 566.269531 3.855469 480.820312 C 9.457031 565.902344 8.078125 566.242188 10.375 624.667969 C 12.730469 555.804688 8.601562 544.050781 9.824219 470.199219 L 7.957031 504.753906 C 1.898438 466.433594 11.324219 391.511719 4.46875 380.125 C 4.589844 374.617188 4.773438 369.261719 5.265625 363.324219 C 5.722656 357.570312 6.03125 351.847656 6.976562 346.214844 C 8.417969 334.890625 10.679688 323.75 13.253906 312.457031 C 18.609375 289.839844 25.800781 266.609375 35.59375 239.828125 C 30.605469 246.589844 26.351562 253.785156 21.761719 260.976562 C 27.085938 244.175781 33.574219 227.769531 41.074219 211.824219 L 45.082031 212.957031 C 52.796875 197.929688 56.589844 190.183594 56.742188 187.859375 C 67.792969 173.535156 80.097656 156.121094 95.246094 138.796875 C 110.304688 121.472656 128.207031 104.273438 148.378906 90.59375 L 151.5 85.574219 C 154.714844 83.644531 159.242188 81.105469 160.46875 80.707031 C 161.90625 78.59375 165.027344 75.625 168.945312 72.351562 C 172.953125 69.230469 177.757812 65.832031 182.382812 62.589844 C 191.808594 56.375 200.589844 50.898438 200.835938 49.0625 C 197.164062 50.621094 192.511719 53.101562 187.460938 55.703125 C 182.382812 58.210938 177.207031 61.273438 172.554688 64.117188 C 167.875 66.875 163.863281 69.566406 161.261719 71.617188 C 158.628906 73.636719 157.375 74.890625 158.292969 74.890625 C 140.910156 85.238281 150.273438 77.15625 167.414062 65.3125 C 184.554688 53.46875 210.691406 40.246094 222.996094 35.289062 C 197.746094 49.03125 231.410156 33.605469 246.746094 29.199219 C 248.949219 27.851562 243.867188 29.320312 241.175781 29.566406 C 264.039062 19.800781 281.023438 17.8125 295.5 16.035156 C 302.816406 15.273438 309.578125 14.691406 316.464844 13.464844 C 323.414062 12.609375 330.484375 10.648438 338.59375 8.355469 L 347.4375 11.507812 C 353.835938 10.464844 360.261719 10.128906 366.722656 9.394531 C 373.210938 8.753906 378.992188 8.414062 385.144531 7.925781 C 388.421875 15.578125 436.625 8.660156 442.53125 15.730469 C 484.21875 15.914062 436.960938 11.382812 451.835938 12.179688 C 490.707031 10.679688 559.019531 17.597656 572.210938 13.984375 C 586.472656 15.089844 601.253906 15.425781 615.730469 15.546875 C 622.34375 14.875 628.648438 14.382812 634.828125 14.324219 C 657.632812 14.566406 660.96875 15.179688 657.722656 15.945312 C 662.222656 16.066406 666.597656 16.191406 670.761719 16.402344 L 672.78125 13.128906 C 686.523438 13.863281 702.5 15.273438 716.300781 15.027344 C 714.007812 14.660156 712.078125 14.199219 710.945312 13.617188 C 712.445312 13.832031 715.109375 14.078125 718.445312 14.324219 C 717.589844 14.046875 716.273438 13.800781 714.589844 13.589844 C 732.15625 14.199219 748.5625 14.628906 764.414062 14.933594 C 765.515625 14.84375 766.589844 14.722656 767.535156 14.597656 C 767.109375 13.222656 725.421875 13.039062 752.234375 12.425781 C 795.359375 13.558594 824.21875 13.128906 850.449219 12.363281 C 846.347656 11.996094 840.5625 11.691406 832.175781 11.476562 C 847.171875 10.4375 865.539062 10.589844 885.828125 11.199219 C 907.527344 10.496094 931.066406 9.945312 963.015625 10.160156 L 955.304688 7.710938 C 965.28125 8.230469 972.84375 9.304688 982.421875 8.476562 L 977.15625 6.855469 C 983.402344 6.855469 1008.773438 7.679688 1039.867188 8.414062 C 1055.417969 8.691406 1072.402344 8.996094 1089.175781 9.304688 C 1106.101562 9.363281 1122.78125 9.425781 1137.5625 9.488281 L 1129.667969 8.570312 L 1122.199219 7.835938 L 1107.292969 6.425781 C 1116.078125 7.039062 1124.433594 7.496094 1133.585938 8.234375 L 1147.417969 9.457031 C 1152.007812 9.976562 1156.601562 10.679688 1161.160156 11.324219 L 1155.375 6.519531 C 1164.863281 9.242188 1185.828125 11.628906 1210.4375 17.167969 C 1235.042969 22.648438 1263.199219 31.890625 1286.554688 43.886719 L 1287.410156 41.285156 L 1301.273438 49.246094 C 1305.867188 51.9375 1310.273438 54.9375 1314.742188 57.785156 L 1306.324219 50.746094 C 1320.1875 58.488281 1334.085938 68.984375 1347.855469 80.277344 C 1361.539062 91.726562 1374.851562 104.273438 1388.378906 116.300781 C 1371.300781 100.507812 1369.496094 93.960938 1372.464844 93.835938 C 1378.402344 99.285156 1383.695312 105.375 1389.296875 111.128906 C 1394.5 117.28125 1399.949219 123.128906 1404.785156 129.523438 C 1414.882812 141.949219 1423.699219 155.324219 1432.023438 168.851562 C 1433.371094 169.3125 1440.105469 178.15625 1444.203125 184.035156 C 1447.417969 188.625 1449.5 191.074219 1447.082031 185.503906 L 1452.039062 196.121094 C 1454.398438 201.96875 1456.875 207.722656 1459.078125 213.566406 C 1459.355469 212.375 1459.601562 211.179688 1459.785156 210.019531 C 1468.382812 226.757812 1475.332031 243.960938 1480.839844 261.40625 C 1486.136719 278.910156 1489.839844 296.601562 1492.316406 314.261719 C 1494.429688 331.984375 1495.5 349.613281 1495.011719 367.117188 C 1494.460938 383.460938 1493.878906 399.714844 1493.328125 415.964844 C 1491.0625 480.695312 1489.441406 545.367188 1494.214844 614.660156 L 1495.042969 612.148438 L 1489.992188 693.683594 C 1490.542969 708.527344 1494.398438 712.78125 1495.777344 737.054688 C 1491.644531 725.484375 1495.316406 783.910156 1491.796875 799.183594 C 1493.480469 818.3125 1494.519531 798.695312 1496.144531 793.460938 C 1500.121094 871.6875 1493.390625 933.847656 1496.265625 1019.300781 C 1490.664062 934.15625 1492.042969 933.820312 1489.746094 875.390625 Z M 12.546875 901.621094 C 17.324219 882.890625 12.394531 873.707031 14.386719 850.664062 C 14.628906 848.765625 14.8125 846.777344 14.9375 844.910156 C 14.660156 847.050781 14.570312 848.765625 14.386719 850.664062 C 12.703125 863.824219 8.476562 878.605469 12.546875 901.621094 Z M 16.558594 921.578125 C 16.496094 920.535156 16.464844 919.433594 16.40625 918.210938 C 15.824219 903.582031 13.710938 943.152344 14.84375 960.324219 C 15.578125 959.40625 15.976562 954.84375 16.25 949.703125 C 16.375 940.339844 16.464844 930.972656 16.558594 921.578125 Z M 20.109375 609.519531 L 20.015625 609.457031 C 19.984375 610.039062 19.984375 610.589844 19.984375 611.109375 C 19.984375 610.589844 20.078125 610.039062 20.109375 609.519531 Z M 20.84375 553.722656 C 20.84375 552.773438 20.8125 551.855469 20.8125 550.90625 L 19.617188 554.640625 C 20.078125 554.027344 20.507812 553.753906 20.84375 553.722656 Z M 31.125 265.078125 C 29.808594 264.925781 26.351562 273.402344 23.078125 283.351562 C 21.578125 288.371094 19.984375 293.695312 18.578125 298.40625 C 17.355469 303.183594 16.222656 307.34375 15.273438 309.945312 C 13.128906 325.371094 19.21875 304.804688 21.761719 299.847656 C 21.242188 303.640625 20.660156 306.761719 19.957031 310.253906 C 19.191406 313.710938 18.363281 317.535156 17.507812 322.738281 C 19.128906 321.421875 19.984375 319.035156 20.597656 315.699219 C 21.332031 312.394531 21.730469 308.140625 22.21875 303.058594 C 23.292969 292.929688 25.28125 279.585938 31.125 265.078125 Z M 62.253906 183.695312 C 59.34375 187.859375 57.050781 191.929688 55 195.9375 C 51.296875 202.425781 47.835938 209.070312 44.46875 215.742188 C 47.777344 214.609375 49.980469 206.34375 55 195.9375 Z M 65.742188 1279.300781 C 63.203125 1274.128906 60.785156 1268.925781 58.519531 1263.597656 C 59.375 1266.046875 60.140625 1268.28125 60.8125 1270.210938 C 60.90625 1270.515625 60.996094 1270.761719 61.089844 1271.066406 C 62.835938 1274.554688 64.457031 1277.464844 65.742188 1279.300781 Z M 106.660156 153.855469 C 104.824219 155.292969 102.714844 157.3125 100.417969 159.761719 C 101.457031 158.90625 102.46875 158.019531 103.507812 157.039062 C 104.398438 156.210938 105.316406 155.324219 106.292969 154.316406 C 106.417969 154.160156 106.539062 154.007812 106.660156 153.855469 Z M 236.980469 58.210938 C 226.851562 61.792969 217.363281 65.128906 208.578125 67.792969 C 206.070312 70.976562 206.898438 71.710938 206.160156 73.332031 C 216.140625 67.792969 226.421875 62.742188 236.980469 58.210938 Z M 495.359375 1489.59375 C 476.871094 1489.164062 478.308594 1485.09375 457.867188 1485.398438 C 458.84375 1485.949219 457.957031 1486.53125 457.375 1487.144531 C 470.261719 1488.828125 472.710938 1491.550781 495.359375 1489.59375 Z M 1042.839844 12.855469 C 1029.953125 11.203125 1027.472656 8.476562 1004.855469 10.4375 C 1023.34375 10.863281 1021.902344 14.933594 1042.347656 14.628906 C 1041.367188 14.046875 1042.257812 13.464844 1042.839844 12.855469 Z M 1294.050781 1426.699219 C 1284.074219 1432.238281 1273.789062 1437.289062 1263.230469 1441.816406 C 1273.363281 1438.234375 1282.851562 1434.898438 1291.632812 1432.238281 C 1294.144531 1429.054688 1293.316406 1428.289062 1294.050781 1426.699219 Z M 1399.796875 1340.265625 C 1398.753906 1341.125 1397.746094 1342.011719 1396.703125 1342.992188 C 1395.816406 1343.816406 1394.898438 1344.703125 1393.917969 1345.714844 C 1393.796875 1345.867188 1393.675781 1346.019531 1393.550781 1346.171875 C 1395.386719 1344.734375 1397.5 1342.714844 1399.796875 1340.265625 Z M 1434.441406 220.730469 C 1436.980469 225.902344 1439.398438 231.136719 1441.695312 236.429688 C 1440.839844 233.980469 1440.074219 231.746094 1439.398438 229.789062 C 1439.308594 229.484375 1439.214844 229.238281 1439.125 228.933594 C 1437.378906 225.472656 1435.726562 222.535156 1434.441406 220.730469 Z M 1455.714844 1284.320312 C 1452.40625 1285.453125 1450.203125 1293.714844 1445.183594 1304.121094 L 1437.929688 1316.363281 C 1440.839844 1312.199219 1443.132812 1308.128906 1445.183594 1304.121094 C 1448.917969 1297.632812 1452.347656 1290.992188 1455.714844 1284.320312 Z M 1483.65625 578.453125 C 1483.71875 579.492188 1483.746094 580.59375 1483.808594 581.820312 C 1484.390625 596.449219 1486.503906 556.875 1485.371094 539.707031 C 1484.636719 540.625 1484.238281 545.183594 1483.960938 550.324219 C 1483.839844 559.691406 1483.71875 569.058594 1483.65625 578.453125 Z M 1480.105469 890.511719 L 1480.199219 890.574219 C 1480.226562 889.992188 1480.226562 889.441406 1480.226562 888.917969 C 1480.199219 889.441406 1480.136719 889.992188 1480.105469 890.511719 Z M 1479.339844 946.304688 C 1479.339844 947.253906 1479.371094 948.171875 1479.371094 949.121094 L 1480.566406 945.386719 C 1480.105469 946 1479.707031 946.277344 1479.339844 946.304688 Z M 1478.390625 1200.214844 C 1478.914062 1196.417969 1479.492188 1193.296875 1480.199219 1189.808594 C 1480.964844 1186.347656 1481.789062 1182.523438 1482.644531 1177.320312 C 1481.023438 1178.636719 1480.167969 1181.023438 1479.554688 1184.359375 C 1478.820312 1187.664062 1478.421875 1191.917969 1477.933594 1197 C 1476.921875 1207.101562 1474.933594 1220.445312 1469.085938 1234.980469 C 1470.402344 1235.136719 1473.863281 1226.65625 1477.105469 1216.710938 C 1478.605469 1211.691406 1480.199219 1206.367188 1481.605469 1201.652344 C 1482.828125 1196.878906 1483.960938 1192.714844 1484.910156 1190.113281 C 1487.054688 1174.65625 1480.964844 1195.226562 1478.390625 1200.214844 Z M 1487.664062 598.40625 C 1482.890625 617.140625 1487.820312 626.320312 1485.828125 649.367188 C 1485.585938 651.265625 1485.402344 653.253906 1485.277344 655.121094 C 1485.554688 652.976562 1485.644531 651.265625 1485.828125 649.367188 C 1487.511719 636.207031 1491.734375 621.421875 1487.664062 598.40625 Z M 1487.664062 598.40625 " fill-opacity="1" fill-rule="nonzero"/><g clip-path="url(#3d3194fcd0)"><path fill="#ffffff" d="M 1105.410156 985.433594 C 1084.078125 1045.636719 1057.039062 1091.261719 1024.085938 1122.101562 C 991.132812 1152.941406 953.535156 1168.363281 910.652344 1168.363281 C 885.09375 1168.363281 861.433594 1163.292969 839.890625 1152.941406 C 818.132812 1142.804688 799.332031 1127.804688 783.488281 1108.371094 C 761.730469 1082.8125 746.3125 1051.761719 737.230469 1015.003906 C 728.144531 978.25 723.5 925.863281 723.5 857.425781 C 723.5 753.285156 737.863281 674.917969 766.800781 621.898438 C 795.742188 568.878906 838.621094 542.472656 895.65625 542.472656 C 942.128906 542.472656 982.472656 560.425781 1016.480469 596.550781 C 1050.492188 632.671875 1077.527344 686.113281 1097.597656 757.300781 L 1149.769531 755.398438 L 1137.730469 479.523438 L 1084.710938 479.523438 C 1082.808594 495.367188 1079.007812 507.195312 1073.515625 515.011719 C 1068.023438 522.828125 1060.628906 526.839844 1051.757812 526.839844 C 1042.253906 526.839844 1027.042969 522.617188 1006.34375 514.378906 C 994.300781 509.519531 984.375 505.929688 977.191406 503.183594 C 970.222656 500.648438 963.460938 498.535156 957.125 496.421875 L 929.875 491.144531 C 926.074219 490.507812 922.058594 489.875 918.046875 489.453125 C 862.070312 484.382812 779.476562 511 702.375 558.738281 C 619.148438 610.492188 555.566406 678.71875 540.78125 732.585938 L 536.34375 748.636719 C 528.738281 781.378906 525.148438 816.234375 525.148438 853.410156 C 525.148438 929.457031 540.78125 996.628906 572.253906 1054.929688 C 603.726562 1113.230469 648.511719 1158.433594 706.601562 1190.332031 C 728.992188 1203.214844 754.128906 1212.722656 782.222656 1219.058594 C 810.316406 1225.394531 840.734375 1228.566406 873.265625 1228.566406 C 947.621094 1228.566406 1009.300781 1209.34375 1058.304688 1170.898438 C 1107.101562 1132.453125 1141.746094 1076.265625 1161.8125 1002.121094 Z M 1105.410156 985.433594 " fill-opacity="1" fill-rule="nonzero"/></g><path fill="#ffffff" d="M 372.425781 732.160156 L 374.328125 755.609375 C 379.820312 757.085938 386.367188 757.085938 393.339844 756.453125 C 400.941406 755.820312 407.703125 754.554688 413.195312 751.808594 L 411.292969 728.992188 Z M 372.425781 732.160156 " fill-opacity="1" fill-rule="nonzero"/><g clip-path="url(#33443330dc)"><path fill="#ffffff" d="M 867.773438 366.515625 C 859.535156 353.417969 847.707031 343.277344 832.917969 336.097656 L 947.832031 172.390625 L 499.589844 241.039062 L 239.136719 612.390625 L 371.160156 592.113281 L 378.128906 674.285156 L 395.449219 672.804688 L 388.269531 589.578125 L 444.457031 580.917969 C 444.878906 595.914062 448.683594 609.855469 456.074219 621.898438 L 521.558594 727.304688 C 537.1875 670.480469 600.980469 598.449219 691.601562 542.050781 C 782.222656 485.652344 875.164062 460.726562 933.042969 471.710938 Z M 867.773438 366.515625 " fill-opacity="1" fill-rule="nonzero"/></g><path fill="#ffffff" d="M 413.195312 752.230469 L 374.328125 755.609375 L 367.144531 919.527344 L 385.945312 922.273438 C 392.703125 925.652344 400.519531 927.132812 408.546875 926.5 C 416.574219 925.863281 423.96875 923.117188 430.09375 918.683594 L 448.257812 912.769531 Z M 413.195312 752.230469 " fill-opacity="1" fill-rule="nonzero"/><path fill="#ffffff" d="M 423.121094 705.96875 C 425.023438 728.78125 410.238281 734.273438 391.648438 735.964844 C 373.058594 737.652344 357.429688 734.695312 355.527344 711.882812 C 353.625 689.070312 370.3125 669.003906 385.734375 667.734375 C 401.152344 666.46875 421.222656 683.15625 423.121094 705.96875 Z M 423.121094 705.96875 " fill-opacity="1" fill-rule="nonzero"/></svg>